<svg width="50" height="50" viewBox="0 0 50 50" fill="none" xmlns="http://www.w3.org/2000/svg">
<path d="M16.6667 33.3333L22.6639 27.3361M22.6639 27.3361C23.7949 28.4671 25.3574 29.1667 27.0833 29.1667C30.5351 29.1667 33.3333 26.3684 33.3333 22.9167C33.3333 19.4649 30.5351 16.6667 27.0833 16.6667C23.6316 16.6667 20.8333 19.4649 20.8333 22.9167C20.8333 24.6426 21.5329 26.2051 22.6639 27.3361ZM43.75 25C43.75 35.3553 35.3553 43.75 25 43.75C14.6447 43.75 6.25 35.3553 6.25 25C6.25 14.6447 14.6447 6.25 25 6.25C35.3553 6.25 43.75 14.6447 43.75 25Z" stroke="white" stroke-width="2" stroke-linecap="round"/>
</svg>
