<svg width="50" height="50" viewBox="0 0 50 50" fill="none" xmlns="http://www.w3.org/2000/svg">
<path d="M10.6688 37.0911C14.9014 34.6987 19.7912 33.3333 25 33.3333C30.2088 33.3333 35.0986 34.6987 39.3312 37.0911M31.25 20.8333C31.25 24.2851 28.4518 27.0833 25 27.0833C21.5482 27.0833 18.75 24.2851 18.75 20.8333C18.75 17.3816 21.5482 14.5833 25 14.5833C28.4518 14.5833 31.25 17.3816 31.25 20.8333ZM43.75 25C43.75 35.3553 35.3553 43.75 25 43.75C14.6447 43.75 6.25 35.3553 6.25 25C6.25 14.6447 14.6447 6.25 25 6.25C35.3553 6.25 43.75 14.6447 43.75 25Z" stroke="white" stroke-width="2" stroke-linecap="round" stroke-linejoin="round"/>
</svg>
